<?xml version="1.0" standalone="no"?>
<!DOCTYPE svg PUBLIC "-//W3C//DTD SVG 20010904//EN"
 "http://www.w3.org/TR/2001/REC-SVG-20010904/DTD/svg10.dtd">
<svg version="1.0" xmlns="http://www.w3.org/2000/svg"
 width="512.000000pt" height="512.000000pt" viewBox="0 0 512.000000 512.000000"
 preserveAspectRatio="xMidYMid meet">
<metadata>
Created by potrace 1.11, written by Peter Selinger 2001-2013
</metadata>
<g transform="translate(0.000000,512.000000) scale(0.100000,-0.100000)"
fill="#1abc9c" stroke="none">
<path d="M1297 4334 c-1 -1 -26 -5 -55 -8 -267 -32 -456 -173 -526 -394 -38
-120 -38 -128 -42 -472 -4 -333 -12 -417 -45 -481 -49 -96 -164 -148 -349
-156 -63 -2 -121 -6 -128 -9 -10 -3 -12 -38 -10 -151 l3 -148 65 -2 c86 -2
208 -11 245 -18 48 -10 126 -57 156 -95 53 -66 58 -112 62 -615 3 -396 6 -470
21 -530 60 -239 208 -383 459 -445 106 -26 400 -39 414 -17 9 14 12 273 3 287
-3 5 -57 11 -120 14 -141 6 -171 11 -235 42 -88 42 -141 106 -171 209 -15 52
-17 116 -19 490 -2 361 -5 441 -19 499 -33 139 -115 246 -230 303 l-56 27 60
27 c105 48 202 170 225 286 5 21 10 45 13 53 2 8 6 107 8 220 7 329 12 484 16
500 3 8 9 29 13 45 27 100 106 176 215 210 31 9 107 19 175 22 66 3 122 7 125
10 8 7 6 273 -2 286 -5 8 -46 12 -138 12 -72 1 -132 0 -133 -1z"/>
<path d="M3553 4327 c-10 -13 -12 -282 -2 -291 3 -3 46 -6 95 -7 249 -2 377
-79 427 -257 5 -20 13 -192 17 -382 8 -359 10 -382 41 -465 42 -112 113 -190
216 -238 l52 -24 -50 -22 c-78 -36 -154 -112 -194 -195 -19 -40 -37 -90 -41
-112 -3 -21 -9 -43 -12 -49 -3 -5 -7 -203 -7 -440 -2 -367 -5 -439 -19 -495
-27 -105 -80 -171 -171 -214 -63 -30 -93 -36 -235 -43 -63 -3 -117 -9 -120
-14 -5 -7 -5 -243 -1 -286 1 -12 271 -11 346 2 229 39 395 146 473 306 67 135
75 189 79 539 5 439 9 642 16 666 21 81 72 139 147 169 69 26 127 35 255 36
125 2 115 -12 115 155 0 107 -3 146 -12 149 -7 2 -65 6 -128 9 -138 5 -230 32
-290 83 -55 47 -75 88 -95 192 -2 13 -5 157 -5 318 -1 399 -22 516 -118 661
-85 129 -256 225 -445 248 -102 12 -325 13 -334 1z"/>
<path d="M2342 4069 c-39 -19 -63 -43 -119 -117 -18 -23 -18 -23 -17 30 1 86
-3 89 -104 86 l-87 -3 0 -580 0 -580 103 -1 c56 -1 104 2 107 6 3 5 6 172 7
372 l1 363 49 95 c58 112 82 140 119 140 23 0 28 -6 37 -40 6 -24 10 -218 11
-481 1 -243 3 -445 6 -449 3 -4 51 -7 107 -6 l103 1 5 375 5 375 38 72 c61
115 92 153 126 153 25 0 30 -5 39 -39 5 -23 10 -222 10 -480 0 -242 3 -445 6
-450 3 -5 52 -8 109 -8 l102 2 3 455 c3 471 -1 538 -38 610 -42 82 -104 120
-198 120 -80 0 -147 -42 -202 -128 -30 -46 -31 -46 -49 9 -12 38 -61 89 -101
105 -47 20 -132 16 -178 -7z"/>
<path d="M2197 2684 c-1 -1 -29 -4 -62 -7 -104 -10 -203 -50 -272 -110 -49
-43 -104 -156 -117 -242 -2 -16 -5 -85 -5 -152 l-1 -123 -174 0 c-117 0 -177
-4 -182 -11 -3 -6 -7 -49 -6 -96 0 -62 3 -88 13 -94 8 -4 79 -8 159 -8 80 0
155 0 167 0 l22 -1 0 -391 c0 -216 3 -394 6 -397 8 -8 213 -9 226 -1 7 4 11
133 11 398 l-1 391 32 1 c18 0 124 0 237 1 113 0 210 4 215 8 8 7 11 112 6
188 -1 9 -57 12 -246 12 l-246 0 3 133 c3 114 7 138 27 180 55 113 175 137
438 88 34 -7 50 -6 55 2 10 15 6 197 -4 198 -4 0 -21 4 -38 9 -37 11 -255 31
-263 24z"/>
<path d="M3320 2229 c-93 -13 -181 -59 -275 -144 l-40 -36 -5 75 c-3 41 -8 77
-12 81 -9 9 -197 10 -206 1 -9 -10 -11 -1127 -1 -1147 6 -12 27 -15 114 -14
70 0 109 5 114 13 4 6 7 173 6 369 l0 358 95 96 c101 102 146 130 223 137 93
9 155 -61 164 -186 2 -37 6 -73 8 -79 6 -17 221 -18 231 -2 7 12 7 92 -1 154
-23 178 -140 306 -293 321 -26 3 -51 6 -57 8 -5 1 -35 -1 -65 -5z"/>
</g>
</svg>
